<svg width="41" height="40" viewBox="0 0 41 40" fill="none" xmlns="http://www.w3.org/2000/svg">
<g id="instagram-2016-5 1" clip-path="url(#clip0_7_172)">
<path id="Vector" d="M13.4671 20C13.4671 16.3182 16.4509 13.3328 20.1327 13.3328C23.8144 13.3328 26.7999 16.3182 26.7999 20C26.7999 23.6818 23.8144 26.6672 20.1327 26.6672C16.4509 26.6672 13.4671 23.6818 13.4671 20ZM9.86293 20C9.86293 25.672 14.4607 30.2698 20.1327 30.2698C25.8047 30.2698 30.4024 25.672 30.4024 20C30.4024 14.328 25.8047 9.73024 20.1327 9.73024C14.4607 9.73024 9.86293 14.328 9.86293 20ZM28.409 9.32304C28.4088 9.79772 28.5494 10.2618 28.8129 10.6566C29.0765 11.0514 29.4512 11.3591 29.8897 11.5409C30.3281 11.7228 30.8107 11.7705 31.2763 11.6781C31.7419 11.5857 32.1696 11.3572 32.5054 11.0217C32.8412 10.6862 33.0699 10.2587 33.1627 9.79316C33.2555 9.32764 33.2082 8.84506 33.0267 8.40645C32.8452 7.96783 32.5377 7.59288 32.1432 7.32901C31.7486 7.06513 31.2846 6.92419 30.81 6.924H30.809C30.1727 6.9243 29.5626 7.17712 29.1126 7.62693C28.6626 8.07675 28.4096 8.68678 28.409 9.32304ZM12.0527 36.2795C10.1028 36.1907 9.04293 35.8659 8.33861 35.5915C7.40485 35.228 6.73861 34.795 6.03813 34.0955C5.33765 33.396 4.90405 32.7304 4.54213 31.7966C4.26757 31.0926 3.94277 30.0325 3.85413 28.0826C3.75717 25.9744 3.73781 25.3411 3.73781 20.0002C3.73781 14.6592 3.75877 14.0277 3.85413 11.9178C3.94293 9.96784 4.27013 8.90976 4.54213 8.20368C4.90565 7.26992 5.33861 6.60368 6.03813 5.9032C6.73765 5.20272 7.40325 4.76912 8.33861 4.4072C9.04261 4.13264 10.1028 3.80784 12.0527 3.7192C14.1608 3.62224 14.7941 3.60288 20.1327 3.60288C25.4712 3.60288 26.1052 3.62384 28.2151 3.7192C30.165 3.808 31.2231 4.1352 31.9292 4.4072C32.8629 4.76912 33.5292 5.20368 34.2296 5.9032C34.9301 6.60272 35.3621 7.26992 35.7257 8.20368C36.0002 8.90768 36.325 9.96784 36.4137 11.9178C36.5106 14.0277 36.53 14.6592 36.53 20.0002C36.53 25.3411 36.5106 25.9726 36.4137 28.0826C36.3248 30.0325 35.9984 31.0923 35.7257 31.7966C35.3621 32.7304 34.9292 33.3966 34.2296 34.0955C33.5301 34.7944 32.8629 35.228 31.9292 35.5915C31.2252 35.8661 30.165 36.1909 28.2151 36.2795C26.1069 36.3765 25.4736 36.3958 20.1327 36.3958C14.7917 36.3958 14.1602 36.3765 12.0527 36.2795ZM11.8871 0.12112C9.75797 0.21808 8.30309 0.55568 7.03253 1.05008C5.71669 1.56064 4.60277 2.2456 3.48965 3.35696C2.37653 4.46832 1.69333 5.584 1.18277 6.89984C0.68837 8.1712 0.35077 9.62528 0.25381 11.7544C0.15525 13.8869 0.13269 14.5686 0.13269 20C0.13269 25.4314 0.15525 26.1131 0.25381 28.2456C0.35077 30.3749 0.68837 31.8288 1.18277 33.1002C1.69333 34.4152 2.37669 35.5322 3.48965 36.643C4.60261 37.7539 5.71669 38.4379 7.03253 38.9499C8.30549 39.4443 9.75797 39.7819 11.8871 39.8789C14.0207 39.9758 14.7013 40 20.1327 40C25.564 40 26.2458 39.9774 28.3783 39.8789C30.5076 39.7819 31.9615 39.4443 33.2328 38.9499C34.5479 38.4379 35.6626 37.7544 36.7757 36.643C37.8888 35.5317 38.5706 34.4152 39.0826 33.1002C39.577 31.8288 39.9162 30.3747 40.0116 28.2456C40.1085 26.1115 40.1311 25.4314 40.1311 20C40.1311 14.5686 40.1085 13.8869 40.0116 11.7544C39.9146 9.62512 39.577 8.1704 39.0826 6.89984C38.5706 5.5848 37.8871 4.47008 36.7757 3.35696C35.6644 2.24384 34.5479 1.56064 33.2345 1.05008C31.9615 0.55568 30.5074 0.21648 28.3799 0.12112C26.2474 0.02416 25.5656 0 20.1343 0C14.7029 0 14.0207 0.02256 11.8871 0.12112Z" fill="url(#paint0_radial_7_172)"/>
<path id="Vector_2" d="M13.4671 20C13.4671 16.3182 16.4509 13.3328 20.1327 13.3328C23.8144 13.3328 26.7999 16.3182 26.7999 20C26.7999 23.6818 23.8144 26.6672 20.1327 26.6672C16.4509 26.6672 13.4671 23.6818 13.4671 20ZM9.86293 20C9.86293 25.672 14.4607 30.2698 20.1327 30.2698C25.8047 30.2698 30.4024 25.672 30.4024 20C30.4024 14.328 25.8047 9.73024 20.1327 9.73024C14.4607 9.73024 9.86293 14.328 9.86293 20ZM28.409 9.32304C28.4088 9.79772 28.5494 10.2618 28.8129 10.6566C29.0765 11.0514 29.4512 11.3591 29.8897 11.5409C30.3281 11.7228 30.8107 11.7705 31.2763 11.6781C31.7419 11.5857 32.1696 11.3572 32.5054 11.0217C32.8412 10.6862 33.0699 10.2587 33.1627 9.79316C33.2555 9.32764 33.2082 8.84506 33.0267 8.40645C32.8452 7.96783 32.5377 7.59288 32.1432 7.32901C31.7486 7.06513 31.2846 6.92419 30.81 6.924H30.809C30.1727 6.9243 29.5626 7.17712 29.1126 7.62693C28.6626 8.07675 28.4096 8.68678 28.409 9.32304ZM12.0527 36.2795C10.1028 36.1907 9.04293 35.8659 8.33861 35.5915C7.40485 35.228 6.73861 34.795 6.03813 34.0955C5.33765 33.396 4.90405 32.7304 4.54213 31.7966C4.26757 31.0926 3.94277 30.0325 3.85413 28.0826C3.75717 25.9744 3.73781 25.3411 3.73781 20.0002C3.73781 14.6592 3.75877 14.0277 3.85413 11.9178C3.94293 9.96784 4.27013 8.90976 4.54213 8.20368C4.90565 7.26992 5.33861 6.60368 6.03813 5.9032C6.73765 5.20272 7.40325 4.76912 8.33861 4.4072C9.04261 4.13264 10.1028 3.80784 12.0527 3.7192C14.1608 3.62224 14.7941 3.60288 20.1327 3.60288C25.4712 3.60288 26.1052 3.62384 28.2151 3.7192C30.165 3.808 31.2231 4.1352 31.9292 4.4072C32.8629 4.76912 33.5292 5.20368 34.2296 5.9032C34.9301 6.60272 35.3621 7.26992 35.7257 8.20368C36.0002 8.90768 36.325 9.96784 36.4137 11.9178C36.5106 14.0277 36.53 14.6592 36.53 20.0002C36.53 25.3411 36.5106 25.9726 36.4137 28.0826C36.3248 30.0325 35.9984 31.0923 35.7257 31.7966C35.3621 32.7304 34.9292 33.3966 34.2296 34.0955C33.5301 34.7944 32.8629 35.228 31.9292 35.5915C31.2252 35.8661 30.165 36.1909 28.2151 36.2795C26.1069 36.3765 25.4736 36.3958 20.1327 36.3958C14.7917 36.3958 14.1602 36.3765 12.0527 36.2795ZM11.8871 0.12112C9.75797 0.21808 8.30309 0.55568 7.03253 1.05008C5.71669 1.56064 4.60277 2.2456 3.48965 3.35696C2.37653 4.46832 1.69333 5.584 1.18277 6.89984C0.68837 8.1712 0.35077 9.62528 0.25381 11.7544C0.15525 13.8869 0.13269 14.5686 0.13269 20C0.13269 25.4314 0.15525 26.1131 0.25381 28.2456C0.35077 30.3749 0.68837 31.8288 1.18277 33.1002C1.69333 34.4152 2.37669 35.5322 3.48965 36.643C4.60261 37.7539 5.71669 38.4379 7.03253 38.9499C8.30549 39.4443 9.75797 39.7819 11.8871 39.8789C14.0207 39.9758 14.7013 40 20.1327 40C25.564 40 26.2458 39.9774 28.3783 39.8789C30.5076 39.7819 31.9615 39.4443 33.2328 38.9499C34.5479 38.4379 35.6626 37.7544 36.7757 36.643C37.8888 35.5317 38.5706 34.4152 39.0826 33.1002C39.577 31.8288 39.9162 30.3747 40.0116 28.2456C40.1085 26.1115 40.1311 25.4314 40.1311 20C40.1311 14.5686 40.1085 13.8869 40.0116 11.7544C39.9146 9.62512 39.577 8.1704 39.0826 6.89984C38.5706 5.5848 37.8871 4.47008 36.7757 3.35696C35.6644 2.24384 34.5479 1.56064 33.2345 1.05008C31.9615 0.55568 30.5074 0.21648 28.3799 0.12112C26.2474 0.02416 25.5656 0 20.1343 0C14.7029 0 14.0207 0.02256 11.8871 0.12112Z" fill="url(#paint1_radial_7_172)"/>
</g>
<defs>
<radialGradient id="paint0_radial_7_172" cx="0" cy="0" r="1" gradientUnits="userSpaceOnUse" gradientTransform="translate(5.44693 40.189) scale(52.2166 52.2166)">
<stop offset="0.09" stop-color="#FA8F21"/>
<stop offset="0.78" stop-color="#D82D7E"/>
</radialGradient>
<radialGradient id="paint1_radial_7_172" cx="0" cy="0" r="1" gradientUnits="userSpaceOnUse" gradientTransform="translate(24.3909 41.981) scale(41.1539)">
<stop offset="0.64" stop-color="#8C3AAA" stop-opacity="0"/>
<stop offset="1" stop-color="#8C3AAA"/>
</radialGradient>
<clipPath id="clip0_7_172">
<rect width="40" height="40" fill="white" transform="translate(0.131897)"/>
</clipPath>
</defs>
</svg>
