<svg width="41" height="40" viewBox="0 0 41 40" fill="none" xmlns="http://www.w3.org/2000/svg">
<g id="pinterest-3 1" clip-path="url(#clip0_7_178)">
<path id="Shape_1_copy_3_25_" d="M20.1239 40C31.1652 40 40.1159 31.0457 40.1159 20C40.1159 8.9543 31.1652 0 20.1239 0C9.08262 0 0.131897 8.9543 0.131897 20C0.131897 31.0457 9.08262 40 20.1239 40Z" fill="#E13138"/>
<path id="Pinterest_Icon" d="M20.9076 10.7077C15.3178 10.7077 12.495 14.6581 12.495 17.9528C12.495 19.952 13.2627 21.7193 14.902 22.383C15.1739 22.495 15.4138 22.391 15.4938 22.0952C15.5497 21.8952 15.7976 21.3755 15.8536 21.1675C15.9336 20.8797 15.9016 20.7757 15.6857 20.5198C15.2139 19.968 14.918 19.3922 14.918 18.3846C14.918 15.026 17.0132 12.6349 20.5797 12.6349C23.7385 12.6349 25.4738 14.5942 25.4738 17.1371C25.4738 20.4798 23.9704 23.1987 21.7393 23.1987C20.5078 23.1987 19.5881 22.3031 19.884 21.0716C20.2359 19.6002 20.9236 18.0168 20.9236 16.9532C20.9236 16.0016 20.4118 15.3219 19.3402 15.3219C18.0847 15.3219 17.0691 16.4974 17.0691 18.2167C17.0691 19.3123 17.429 19.8561 17.429 19.8561C17.429 19.8561 16.1575 25.4298 15.9256 26.3734C15.4778 28.2527 15.8616 30.5478 15.8936 30.7797C15.9096 30.9156 16.0935 30.9476 16.1735 30.8437C16.2854 30.6997 17.7888 28.8685 18.3006 27.0452C18.4446 26.5334 19.1323 23.8625 19.1323 23.8625C19.5401 24.6301 20.7397 25.126 22.0032 25.126C25.7856 25.126 28.3526 21.9032 28.3526 17.3611C28.3606 13.9144 25.4018 10.7077 20.9076 10.7077Z" fill="white"/>
</g>
<defs>
<clipPath id="clip0_7_178">
<rect width="39.984" height="40" fill="white" transform="translate(0.131897)"/>
</clipPath>
</defs>
</svg>
